<svg width="180.148" xmlns="http://www.w3.org/2000/svg" height="45.367" id="screenshot-9aad57a6-430f-80c2-8006-b622d0e447c0" viewBox="0 0 180.148 45.367" xmlns:xlink="http://www.w3.org/1999/xlink" fill="none" version="1.1"><g id="shape-9aad57a6-430f-80c2-8006-b622d0e447c0" rx="0" ry="0"><g id="shape-9aad57a6-430f-80c2-8006-b621dcadc1db"><g class="fills" id="fills-9aad57a6-430f-80c2-8006-b621dcadc1db"><path d="M39.03125,1.6000652313232422C64.62890625,0.10006528347730637,90.2890625,0.053190283477306366,115.93359375,0.006315282545983791C128.96875,-0.013215967454016209,142.015625,-0.036653466522693634,155.02734375,0.756315290927887C160.15234375,1.0688152313232422,165.30859375,1.5141277313232422,170.25,2.916471481323242C172.13671875,3.451627731323242,174.06640625,4.178190231323242,175.37109375,5.639127731323242C176.484375,6.893033981323242,177.0234375,8.545377731323242,177.4765625,10.162565231323242C178.91796875,15.311002731323242,179.796875,20.619596481323242,180.08984375,25.959440231323242C180.3046875,29.924283981323242,180.03515625,34.330535888671875,177.25,37.162567138671875C174.69921875,39.760223388671875,170.76235961914062,40.254364013671875,167.140625,40.627410888671875C132.5,44.209442138671875,119.1219482421875,48.384368896484375,24.5,42.209442138671875C17.202499389648438,41.73321533203125,10.405014038085938,37.772979736328125,10.405014038085938,37.772979736328125C10.405014038085938,37.772979736328125,2.7295989990234375,34.18170166015625,0,23.709440231323242C0,19.209440231323242,4,24.709440231323242,7,24.709440231323242C11.345489501953125,24.709348678588867,10.180435180664062,18.270689010620117,12.79296875,13.584440231323242C18.1875,3.916471481323242,28.8046875,2.197721481323242,39.03125,1.6000652313232422" style="stroke: none; fill-rule: nonzero; fill: rgb(253, 212, 149); fill-opacity: 1;"/></g></g></g></svg>