<svg width="116.444" xmlns="http://www.w3.org/2000/svg" height="83.947" id="screenshot-36423222-dde2-804d-8006-952407f548a5" viewBox="0 0 116.444 83.947" xmlns:xlink="http://www.w3.org/1999/xlink" fill="none" version="1.1"><g id="shape-36423222-dde2-804d-8006-952407f548a5" rx="0" ry="0"><g id="shape-36423222-dde2-804d-8006-9523f5c40491"><g class="fills" id="fills-36423222-dde2-804d-8006-9523f5c40491"><path d="M1.4444580078125,6.9467010498046875C9.4444580078125,12.946701049804688,46.4444580078125,46.94670104980469,58.4444580078125,46.94670104980469C69.18072509765625,46.94670104980469,114.4444580078125,6.4467010498046875,114.4444580078125,6.4467010498046875C114.4444580078125,6.4467010498046875,111.93124389648438,1.04266357421875,108.4444580078125,0.9467010498046875C53.9444580078125,-0.5532989501953125,31.4444580078125,-0.0532989501953125,9.4444580078125,0.9467010498046875C1.4371337890625,1.3106689453125,2.28338623046875,7.7342376708984375,1.4444580078125,6.9467010498046875" style="fill: rgb(245, 241, 237); fill-opacity: 1;"/></g></g><g id="shape-36423222-dde2-804d-8006-9523f5c40492"><g class="fills" id="fills-36423222-dde2-804d-8006-9523f5c40492"><path d="M0.4444580078125,15.946701049804688C0.4444580078125,15.946701049804688,-0.5555419921875,35.94670104980469,0.4444580078125,75.94670104980469C0.5924072265625,81.86480712890625,6.4444580078125,83.94670104980469,8.4444580078125,83.94670104980469C72.4444580078125,83.94670104980469,44.4444580078125,83.94670104980469,108.4444580078125,83.94670104980469C114.15719604492188,83.94670104980469,116.4444580078125,75.94670104980469,116.4444580078125,75.94670104980469L116.4444580078125,15.946701049804688C116.4444580078125,15.946701049804688,102.4444580078125,27.946701049804688,66.4444580078125,53.94670104980469C61.84912109375,57.26551818847656,55.08233642578125,56.20573425292969,50.4444580078125,52.94670104980469C13.4444580078125,26.946701049804688,0.4444580078125,15.946701049804688,0.4444580078125,15.946701049804688" style="fill: rgb(245, 241, 237); fill-opacity: 1;"/></g></g></g></svg>