<svg width="216.531" xmlns="http://www.w3.org/2000/svg" height="135.047" id="screenshot-83682976-0856-80fd-8006-6e5c1f6e7715" viewBox="0 0 216.531 135.047" xmlns:xlink="http://www.w3.org/1999/xlink" fill="none" version="1.1"><g id="shape-83682976-0856-80fd-8006-6e5c1f6e7715" width="349" height="206" version="1.2" rx="0" ry="0" style="fill: rgb(0, 0, 0);"><g id="shape-83682976-0856-80fd-8006-6e5c1f70360e" clip-path="url(#render-2-a)" rx="0" ry="0" style="fill: rgb(0, 0, 0);"><defs><clipPath id="render-2-a" class="svg-def" transform="matrix(1.000000, 0.000000, 0.000000, 1.000000, -3.261719, -18.367188)"><path d="M 3.261719 18.367188 L 138.308594 18.367188 L 138.308594 153.414062 L 3.261719 153.414062 Z M 3.261719 18.367188"/></clipPath></defs><g id="shape-83682976-0856-80fd-8006-6e5c1f70451a" clip-path="url(#render-3-b)" rx="0" ry="0" style="fill: rgb(0, 0, 0);"><defs><clipPath id="render-3-b" class="svg-def" transform="matrix(1.000000, 0.000000, 0.000000, 1.000000, -3.261719, -18.367188)"><path d="M 70.785156 18.367188 C 33.492188 18.367188 3.261719 48.597656 3.261719 85.890625 C 3.261719 123.183594 33.492188 153.414062 70.785156 153.414062 C 108.078125 153.414062 138.308594 123.183594 138.308594 85.890625 C 138.308594 48.597656 108.078125 18.367188 70.785156 18.367188 Z M 70.785156 18.367188"/></clipPath></defs><g id="shape-83682976-0856-80fd-8006-6e5c1f70832c"><g class="fills" id="fills-83682976-0856-80fd-8006-6e5c1f70832c"><path d="M-2.384185791015625e-7,0L135.046875,0L135.046875,135.046875L-2.384185791015625e-7,135.046875ZM-2.384185791015625e-7,0" style="stroke: none; fill-rule: nonzero; fill: rgb(207, 112, 112); fill-opacity: 1;"/></g></g></g></g><g id="shape-83682976-0856-80fd-8006-6e5c43673424" rx="0" ry="0"><g id="shape-83682976-0856-80fd-8006-6e5c1f70832d" rx="0" ry="0" style="fill: rgb(0, 0, 0);"><g id="shape-83682976-0856-80fd-8006-6e5c1f713737"><g class="fills" id="fills-83682976-0856-80fd-8006-6e5c1f713737"><path d="M67.25,71.02047729492188L35.953125,71.02047729492188C36.3046875,75.25094604492188,37.515625,78.33297729492188,39.578125,80.27047729492188C41.640625,82.20016479492188,44.4453125,83.16110229492188,48,83.16110229492188C50.80078125,83.16110229492188,53.06640625,82.64157104492188,54.796875,81.59860229492188C56.53515625,80.54782104492188,57.9375,78.96578979492188,59,76.84860229492188L59.921875,76.84860229492188L68.046875,82.05172729492188C66.453125,85.46969604492188,64.05078125,88.23532104492188,60.84375,90.34860229492188C57.6328125,92.46578979492188,53.3515625,93.52047729492188,48,93.52047729492188C42.96875,93.52047729492188,38.6171875,92.56735229492188,34.953125,90.66110229492188C31.296875,88.74703979492188,28.47265625,85.89547729492188,26.484375,82.11422729492188C24.50390625,78.33297729492188,23.515625,73.72360229492188,23.515625,68.28610229492188C23.515625,62.754852294921875,24.5546875,58.094696044921875,26.640625,54.301727294921875C28.734375,50.500946044921875,31.5546875,47.668914794921875,35.109375,45.801727294921875C38.671875,43.926727294921875,42.67578125,42.989227294921875,47.125,42.989227294921875C54.0078125,42.989227294921875,59.28125,44.817352294921875,62.9375,48.473602294921875C66.6015625,52.122039794921875,68.4375,57.469696044921875,68.4375,64.52047729492188C68.4375,67.08297729492188,68.34765625,69.07516479492188,68.171875,70.48922729492188ZM56.75,63.114227294921875C56.625,59.407196044921875,55.7578125,56.707977294921875,54.15625,55.020477294921875C52.55078125,53.325164794921875,50.20703125,52.473602294921875,47.125,52.473602294921875C40.9453125,52.473602294921875,37.3125,56.020477294921875,36.21875,63.114227294921875ZM56.75,63.114227294921875" style="stroke: none; fill: rgb(246, 244, 240); fill-opacity: 1;"/></g></g></g><g id="shape-83682976-0856-80fd-8006-6e5c1f713738" rx="0" ry="0" style="fill: rgb(0, 0, 0);"><g id="shape-83682976-0856-80fd-8006-6e5c1f7150b1"><g class="fills" id="fills-83682976-0856-80fd-8006-6e5c1f7150b1"><path d="M80.19281005859375,38.082977294921875C77.98187255859375,38.082977294921875,76.18499755859375,37.418914794921875,74.80218505859375,36.082977294921875C73.42718505859375,34.739227294921875,72.73968505859375,33.012664794921875,72.73968505859375,30.895477294921875C72.73968505859375,28.813446044921875,73.42718505859375,27.098602294921875,74.80218505859375,25.754852294921875C76.18499755859375,24.411102294921875,77.98187255859375,23.739227294921875,80.19281005859375,23.739227294921875C81.66156005859375,23.739227294921875,82.96624755859375,24.051727294921875,84.11468505859375,24.676727294921875C85.27093505859375,25.293914794921875,86.16156005859375,26.137664794921875,86.78656005859375,27.207977294921875C87.41937255859375,28.282196044921875,87.73968505859375,29.512664794921875,87.73968505859375,30.895477294921875C87.73968505859375,32.282196044921875,87.41937255859375,33.520477294921875,86.78656005859375,34.614227294921875C86.16156005859375,35.700164794921875,85.27093505859375,36.547821044921875,84.11468505859375,37.161102294921875C82.96624755859375,37.778289794921875,81.66156005859375,38.082977294921875,80.19281005859375,38.082977294921875ZM74.09906005859375,92.59860229492188L74.09906005859375,43.911102294921875L86.33343505859375,43.911102294921875L86.33343505859375,92.59860229492188ZM74.09906005859375,92.59860229492188" style="stroke: none; fill: rgb(246, 244, 240); fill-opacity: 1;"/></g></g></g><g id="shape-83682976-0856-80fd-8006-6e5c1f7150b2" rx="0" ry="0" style="fill: rgb(0, 0, 0);"><g id="shape-83682976-0856-80fd-8006-6e5c1f7150b3"><g class="fills" id="fills-83682976-0856-80fd-8006-6e5c1f7150b3"><path d="M95.34182739257812,92.59860229492188L95.34182739257812,43.911102294921875L107.21682739257812,43.911102294921875L107.21682739257812,51.161102294921875L108.13870239257812,51.332977294921875C109.31448364257812,48.625946044921875,110.85745239257812,46.641571044921875,112.76370239257812,45.379852294921875C114.67776489257812,44.110321044921875,117.00588989257812,43.473602294921875,119.74807739257812,43.473602294921875C122.51760864257812,43.473602294921875,124.62307739257812,43.942352294921875,126.06060791015625,44.879852294921875L123.98245239257812,55.442352294921875L123.06057739257812,55.614227294921875C122.26760864257812,55.293914794921875,121.50198364257812,55.059539794921875,120.76370239257812,54.911102294921875C120.03323364257812,54.766571044921875,119.13870239257812,54.692352294921875,118.07620239257812,54.692352294921875C114.65823364257812,54.692352294921875,112.05276489257812,55.891571044921875,110.26370239257812,58.286102294921875C108.47073364257812,60.684539794921875,107.57620239257812,64.52828979492188,107.57620239257812,69.81735229492188L107.57620239257812,92.59860229492188ZM95.34182739257812,92.59860229492188" style="stroke: none; fill: rgb(246, 244, 240); fill-opacity: 1;"/></g></g></g><g id="shape-83682976-0856-80fd-8006-6e5c1f71b479" rx="0" ry="0" style="fill: rgb(0, 0, 0);"><g id="shape-83682976-0856-80fd-8006-6e5c1f71b47a"><g class="fills" id="fills-83682976-0856-80fd-8006-6e5c1f71b47a"><path d="M134.63821411132812,38.082977294921875C132.42727661132812,38.082977294921875,130.63040161132812,37.418914794921875,129.24758911132812,36.082977294921875C127.87258911132812,34.739227294921875,127.18508911132812,33.012664794921875,127.18508911132812,30.895477294921875C127.18508911132812,28.813446044921875,127.87258911132812,27.098602294921875,129.24758911132812,25.754852294921875C130.63040161132812,24.411102294921875,132.42727661132812,23.739227294921875,134.63821411132812,23.739227294921875C136.10696411132812,23.739227294921875,137.41165161132812,24.051727294921875,138.56008911132812,24.676727294921875C139.71633911132812,25.293914794921875,140.60696411132812,26.137664794921875,141.23196411132812,27.207977294921875C141.86477661132812,28.282196044921875,142.18508911132812,29.512664794921875,142.18508911132812,30.895477294921875C142.18508911132812,32.282196044921875,141.86477661132812,33.520477294921875,141.23196411132812,34.614227294921875C140.60696411132812,35.700164794921875,139.71633911132812,36.547821044921875,138.56008911132812,37.161102294921875C137.41165161132812,37.778289794921875,136.10696411132812,38.082977294921875,134.63821411132812,38.082977294921875ZM128.54446411132812,92.59860229492188L128.54446411132812,43.911102294921875L140.77883911132812,43.911102294921875L140.77883911132812,92.59860229492188ZM128.54446411132812,92.59860229492188" style="stroke: none; fill: rgb(246, 244, 240); fill-opacity: 1;"/></g></g></g><g id="shape-83682976-0856-80fd-8006-6e5c1f71b47b" rx="0" ry="0" style="fill: rgb(0, 0, 0);"><g id="shape-83682976-0856-80fd-8006-6e5c1f71ed97"><g class="fills" id="fills-83682976-0856-80fd-8006-6e5c1f71ed97"><path d="M149.7872314453125,92.59860229492188L149.7872314453125,43.911102294921875L161.5372314453125,43.911102294921875L161.5372314453125,51.067352294921875L162.4591064453125,51.286102294921875C165.4903564453125,45.754852294921875,170.4005126953125,42.989227294921875,177.1934814453125,42.989227294921875C182.8184814453125,42.989227294921875,186.9434814453125,44.520477294921875,189.5684814453125,47.582977294921875C192.2012939453125,50.645477294921875,193.5216064453125,55.106414794921875,193.5216064453125,60.957977294921875L193.5216064453125,92.59860229492188L181.3028564453125,92.59860229492188L181.3028564453125,62.457977294921875C181.3028564453125,59.219696044921875,180.6505126953125,56.887664794921875,179.3497314453125,55.457977294921875C178.0567626953125,54.032196044921875,175.9825439453125,53.317352294921875,173.1309814453125,53.317352294921875C169.6309814453125,53.317352294921875,166.9005126953125,54.454071044921875,164.9434814453125,56.723602294921875C162.9942626953125,58.985321044921875,162.0216064453125,62.543914794921875,162.0216064453125,67.39547729492188L162.0216064453125,92.59860229492188ZM149.7872314453125,92.59860229492188" style="stroke: none; fill: rgb(246, 244, 240); fill-opacity: 1;"/></g></g></g><g id="shape-83682976-0856-80fd-8006-6e5c1f71ed98" rx="0" ry="0" style="fill: rgb(0, 0, 0);"><g id="shape-83682976-0856-80fd-8006-6e5c1f7218a4"><g class="fills" id="fills-83682976-0856-80fd-8006-6e5c1f7218a4"><path d="M207.9281005859375,38.082977294921875C205.7171630859375,38.082977294921875,203.9202880859375,37.418914794921875,202.5374755859375,36.082977294921875C201.1624755859375,34.739227294921875,200.4749755859375,33.012664794921875,200.4749755859375,30.895477294921875C200.4749755859375,28.813446044921875,201.1624755859375,27.098602294921875,202.5374755859375,25.754852294921875C203.9202880859375,24.411102294921875,205.7171630859375,23.739227294921875,207.9281005859375,23.739227294921875C209.3968505859375,23.739227294921875,210.7015380859375,24.051727294921875,211.8499755859375,24.676727294921875C213.0062255859375,25.293914794921875,213.8968505859375,26.137664794921875,214.5218505859375,27.207977294921875C215.1546630859375,28.282196044921875,215.4749755859375,29.512664794921875,215.4749755859375,30.895477294921875C215.4749755859375,32.282196044921875,215.1546630859375,33.520477294921875,214.5218505859375,34.614227294921875C213.8968505859375,35.700164794921875,213.0062255859375,36.547821044921875,211.8499755859375,37.161102294921875C210.7015380859375,37.778289794921875,209.3968505859375,38.082977294921875,207.9281005859375,38.082977294921875ZM201.8343505859375,92.59860229492188L201.8343505859375,43.911102294921875L214.0687255859375,43.911102294921875L214.0687255859375,92.59860229492188ZM201.8343505859375,92.59860229492188" style="stroke: none; fill: rgb(246, 244, 240); fill-opacity: 1;"/></g></g></g><g id="shape-83682976-0856-80fd-8006-6e5c1f7218a5" clip-path="url(#render-18-c)" rx="0" ry="0" style="fill: rgb(0, 0, 0);"><defs><clipPath id="render-18-c" class="svg-def" transform="matrix(1.000000, 0.000000, 0.000000, 1.000000, -3.261719, -18.367188)"><path d="M 203.488281 41.808594 L 219.792969 41.808594 L 219.792969 58.109375 L 203.488281 58.109375 Z M 203.488281 41.808594"/></clipPath></defs><g id="shape-83682976-0856-80fd-8006-6e5c1f7218a6" clip-path="url(#render-19-d)" rx="0" ry="0" style="fill: rgb(0, 0, 0);"><defs><clipPath id="render-19-d" class="svg-def" transform="matrix(1.000000, 0.000000, 0.000000, 1.000000, -3.261719, -18.367188)"><path d="M 211.640625 41.808594 C 207.140625 41.808594 203.488281 45.457031 203.488281 49.957031 C 203.488281 54.460938 207.140625 58.109375 211.640625 58.109375 C 216.144531 58.109375 219.792969 54.460938 219.792969 49.957031 C 219.792969 45.457031 216.144531 41.808594 211.640625 41.808594 Z M 211.640625 41.808594"/></clipPath></defs><g id="shape-83682976-0856-80fd-8006-6e5c1f7218a7"><g class="fills" id="fills-83682976-0856-80fd-8006-6e5c1f7218a7"><path d="M200.2265625,23.44140625L216.53125,23.44140625L216.53125,39.7421875L200.2265625,39.7421875ZM200.2265625,23.44140625" style="stroke: none; fill-rule: nonzero; fill: rgb(253, 212, 149); fill-opacity: 1;"/></g></g></g></g><g id="shape-83682976-0856-80fd-8006-6e5c1f7218a8" clip-path="url(#render-21-e)" rx="0" ry="0" style="fill: rgb(0, 0, 0);"><defs><clipPath id="render-21-e" class="svg-def" transform="matrix(1.000000, 0.000000, 0.000000, 1.000000, -3.261719, -18.367188)"><path d="M 130.15625 41.808594 L 146.460938 41.808594 L 146.460938 58.109375 L 130.15625 58.109375 Z M 130.15625 41.808594"/></clipPath></defs><g id="shape-83682976-0856-80fd-8006-6e5c1f725b5f" clip-path="url(#render-22-f)" rx="0" ry="0" style="fill: rgb(0, 0, 0);"><defs><clipPath id="render-22-f" class="svg-def" transform="matrix(1.000000, 0.000000, 0.000000, 1.000000, -3.261719, -18.367188)"><path d="M 138.308594 41.808594 C 133.804688 41.808594 130.15625 45.457031 130.15625 49.957031 C 130.15625 54.460938 133.804688 58.109375 138.308594 58.109375 C 142.808594 58.109375 146.460938 54.460938 146.460938 49.957031 C 146.460938 45.457031 142.808594 41.808594 138.308594 41.808594 Z M 138.308594 41.808594"/></clipPath></defs><g id="shape-83682976-0856-80fd-8006-6e5c1f725b60"><g class="fills" id="fills-83682976-0856-80fd-8006-6e5c1f725b60"><path d="M126.89453125,23.44140625L143.19921875,23.44140625L143.19921875,39.7421875L126.89453125,39.7421875ZM126.89453125,23.44140625" style="stroke: none; fill-rule: nonzero; fill: rgb(255, 189, 89); fill-opacity: 1;"/></g></g></g></g><g id="shape-83682976-0856-80fd-8006-6e5c1f725b61" clip-path="url(#render-24-g)" rx="0" ry="0" style="fill: rgb(0, 0, 0);"><defs><clipPath id="render-24-g" class="svg-def" transform="matrix(1.000000, 0.000000, 0.000000, 1.000000, -3.261719, -18.367188)"><path d="M 75.429688 41.808594 L 91.734375 41.808594 L 91.734375 58.109375 L 75.429688 58.109375 Z M 75.429688 41.808594"/></clipPath></defs><g id="shape-83682976-0856-80fd-8006-6e5c1f725b62" clip-path="url(#render-25-h)" rx="0" ry="0" style="fill: rgb(0, 0, 0);"><defs><clipPath id="render-25-h" class="svg-def" transform="matrix(1.000000, 0.000000, 0.000000, 1.000000, -3.261719, -18.367188)"><path d="M 83.582031 41.808594 C 79.082031 41.808594 75.429688 45.457031 75.429688 49.957031 C 75.429688 54.460938 79.082031 58.109375 83.582031 58.109375 C 88.085938 58.109375 91.734375 54.460938 91.734375 49.957031 C 91.734375 45.457031 88.085938 41.808594 83.582031 41.808594 Z M 83.582031 41.808594"/></clipPath></defs><g id="shape-83682976-0856-80fd-8006-6e5c1f72a02e"><g class="fills" id="fills-83682976-0856-80fd-8006-6e5c1f72a02e"><path d="M72.16796875,23.44140625L88.47265625,23.44140625L88.47265625,39.7421875L72.16796875,39.7421875ZM72.16796875,23.44140625" style="stroke: none; fill-rule: nonzero; fill: rgb(255, 189, 89); fill-opacity: 1;"/></g></g></g></g></g></g></svg>